<mxfile host="65bd71144e">
    <diagram name="Página-1" id="WQgaXpY9q44vpfcm1O1t">
        <mxGraphModel dx="725" dy="1255" grid="0" gridSize="10" guides="1" tooltips="1" connect="1" arrows="1" fold="1" page="0" pageScale="1" pageWidth="827" pageHeight="1169" math="0" shadow="0">
            <root>
                <mxCell id="0"/>
                <mxCell id="1" parent="0"/>
                <mxCell id="KR805-k4RVPn_iqTsWQG-1" value="Catálogo de Caricaturas" style="text;html=1;align=center;verticalAlign=middle;whiteSpace=wrap;rounded=1;fontSize=42;shadow=0;glass=0;fillColor=#280061;fontColor=#ffffff;strokeColor=#3700CC;sketch=1;curveFitting=1;jiggle=2;" parent="1" vertex="1">
                    <mxGeometry x="-167.23000000000002" y="-82" width="414" height="125" as="geometry"/>
                </mxCell>
                <mxCell id="THMNmjtGREzgOkNECSH_-5" style="edgeStyle=orthogonalEdgeStyle;rounded=0;orthogonalLoop=1;jettySize=auto;html=1;exitX=0.5;exitY=1;exitDx=0;exitDy=0;entryX=0.5;entryY=0;entryDx=0;entryDy=0;" parent="1" source="KR805-k4RVPn_iqTsWQG-2" target="KR805-k4RVPn_iqTsWQG-27" edge="1">
                    <mxGeometry relative="1" as="geometry"/>
                </mxCell>
                <mxCell id="KR805-k4RVPn_iqTsWQG-2" value="" style="shape=image;verticalLabelPosition=bottom;labelBackgroundColor=default;verticalAlign=top;aspect=fixed;imageAspect=0;image=https://m.media-amazon.com/images/M/MV5BOGQ0MDQyYWMtNjdlYy00ZDAyLWE5YTItMzcyMjllZTA4MTcyXkEyXkFqcGdeQXVyMjEzNTg5Mzk@._V1_FMjpg_UX1000_.jpg;" parent="1" vertex="1">
                    <mxGeometry x="-295.52" y="128" width="165.04" height="233" as="geometry"/>
                </mxCell>
                <mxCell id="KR805-k4RVPn_iqTsWQG-27" value="Datos Caricatura" style="shape=table;startSize=30;container=1;collapsible=0;childLayout=tableLayout;fixedRows=1;rowLines=0;fontStyle=0;strokeColor=default;fontSize=16;" parent="1" vertex="1">
                    <mxGeometry x="-302" y="390" width="178" height="326" as="geometry"/>
                </mxCell>
                <mxCell id="KR805-k4RVPn_iqTsWQG-28" value="" style="shape=tableRow;horizontal=0;startSize=0;swimlaneHead=0;swimlaneBody=0;top=0;left=0;bottom=0;right=0;collapsible=0;dropTarget=0;fillColor=none;points=[[0,0.5],[1,0.5]];portConstraint=eastwest;strokeColor=inherit;fontSize=16;" parent="KR805-k4RVPn_iqTsWQG-27" vertex="1">
                    <mxGeometry y="30" width="178" height="30" as="geometry"/>
                </mxCell>
                <mxCell id="KR805-k4RVPn_iqTsWQG-29" value="1" style="shape=partialRectangle;html=1;whiteSpace=wrap;connectable=0;fillColor=none;top=0;left=0;bottom=0;right=0;overflow=hidden;pointerEvents=1;strokeColor=inherit;fontSize=16;" parent="KR805-k4RVPn_iqTsWQG-28" vertex="1">
                    <mxGeometry width="40" height="30" as="geometry">
                        <mxRectangle width="40" height="30" as="alternateBounds"/>
                    </mxGeometry>
                </mxCell>
                <mxCell id="KR805-k4RVPn_iqTsWQG-30" value="Titulo" style="shape=partialRectangle;html=1;whiteSpace=wrap;connectable=0;fillColor=none;top=0;left=0;bottom=0;right=0;align=left;spacingLeft=6;overflow=hidden;strokeColor=inherit;fontSize=16;" parent="KR805-k4RVPn_iqTsWQG-28" vertex="1">
                    <mxGeometry x="40" width="138" height="30" as="geometry">
                        <mxRectangle width="138" height="30" as="alternateBounds"/>
                    </mxGeometry>
                </mxCell>
                <mxCell id="KR805-k4RVPn_iqTsWQG-31" value="" style="shape=tableRow;horizontal=0;startSize=0;swimlaneHead=0;swimlaneBody=0;top=0;left=0;bottom=0;right=0;collapsible=0;dropTarget=0;fillColor=none;points=[[0,0.5],[1,0.5]];portConstraint=eastwest;strokeColor=inherit;fontSize=16;" parent="KR805-k4RVPn_iqTsWQG-27" vertex="1">
                    <mxGeometry y="60" width="178" height="30" as="geometry"/>
                </mxCell>
                <mxCell id="KR805-k4RVPn_iqTsWQG-32" value="2" style="shape=partialRectangle;html=1;whiteSpace=wrap;connectable=0;fillColor=none;top=0;left=0;bottom=0;right=0;overflow=hidden;strokeColor=inherit;fontSize=16;" parent="KR805-k4RVPn_iqTsWQG-31" vertex="1">
                    <mxGeometry width="40" height="30" as="geometry">
                        <mxRectangle width="40" height="30" as="alternateBounds"/>
                    </mxGeometry>
                </mxCell>
                <mxCell id="KR805-k4RVPn_iqTsWQG-33" value="Género&amp;nbsp;" style="shape=partialRectangle;html=1;whiteSpace=wrap;connectable=0;fillColor=none;top=0;left=0;bottom=0;right=0;align=left;spacingLeft=6;overflow=hidden;strokeColor=inherit;fontSize=16;" parent="KR805-k4RVPn_iqTsWQG-31" vertex="1">
                    <mxGeometry x="40" width="138" height="30" as="geometry">
                        <mxRectangle width="138" height="30" as="alternateBounds"/>
                    </mxGeometry>
                </mxCell>
                <mxCell id="KR805-k4RVPn_iqTsWQG-34" value="" style="shape=tableRow;horizontal=0;startSize=0;swimlaneHead=0;swimlaneBody=0;top=0;left=0;bottom=0;right=0;collapsible=0;dropTarget=0;fillColor=none;points=[[0,0.5],[1,0.5]];portConstraint=eastwest;strokeColor=inherit;fontSize=16;" parent="KR805-k4RVPn_iqTsWQG-27" vertex="1">
                    <mxGeometry y="90" width="178" height="30" as="geometry"/>
                </mxCell>
                <mxCell id="KR805-k4RVPn_iqTsWQG-35" value="3" style="shape=partialRectangle;html=1;whiteSpace=wrap;connectable=0;fillColor=none;top=0;left=0;bottom=0;right=0;overflow=hidden;strokeColor=inherit;fontSize=16;" parent="KR805-k4RVPn_iqTsWQG-34" vertex="1">
                    <mxGeometry width="40" height="30" as="geometry">
                        <mxRectangle width="40" height="30" as="alternateBounds"/>
                    </mxGeometry>
                </mxCell>
                <mxCell id="KR805-k4RVPn_iqTsWQG-36" value="Sinopsis" style="shape=partialRectangle;html=1;whiteSpace=wrap;connectable=0;fillColor=none;top=0;left=0;bottom=0;right=0;align=left;spacingLeft=6;overflow=hidden;strokeColor=inherit;fontSize=16;" parent="KR805-k4RVPn_iqTsWQG-34" vertex="1">
                    <mxGeometry x="40" width="138" height="30" as="geometry">
                        <mxRectangle width="138" height="30" as="alternateBounds"/>
                    </mxGeometry>
                </mxCell>
                <mxCell id="KR805-k4RVPn_iqTsWQG-37" value="" style="shape=tableRow;horizontal=0;startSize=0;swimlaneHead=0;swimlaneBody=0;top=0;left=0;bottom=0;right=0;collapsible=0;dropTarget=0;fillColor=none;points=[[0,0.5],[1,0.5]];portConstraint=eastwest;strokeColor=inherit;fontSize=16;" parent="KR805-k4RVPn_iqTsWQG-27" vertex="1">
                    <mxGeometry y="120" width="178" height="30" as="geometry"/>
                </mxCell>
                <mxCell id="KR805-k4RVPn_iqTsWQG-38" value="4" style="shape=partialRectangle;html=1;whiteSpace=wrap;connectable=0;fillColor=none;top=0;left=0;bottom=0;right=0;overflow=hidden;strokeColor=inherit;fontSize=16;" parent="KR805-k4RVPn_iqTsWQG-37" vertex="1">
                    <mxGeometry width="40" height="30" as="geometry">
                        <mxRectangle width="40" height="30" as="alternateBounds"/>
                    </mxGeometry>
                </mxCell>
                <mxCell id="KR805-k4RVPn_iqTsWQG-39" value="Temporadas" style="shape=partialRectangle;html=1;whiteSpace=wrap;connectable=0;fillColor=none;top=0;left=0;bottom=0;right=0;align=left;spacingLeft=6;overflow=hidden;strokeColor=inherit;fontSize=16;" parent="KR805-k4RVPn_iqTsWQG-37" vertex="1">
                    <mxGeometry x="40" width="138" height="30" as="geometry">
                        <mxRectangle width="138" height="30" as="alternateBounds"/>
                    </mxGeometry>
                </mxCell>
                <mxCell id="KR805-k4RVPn_iqTsWQG-40" value="" style="shape=tableRow;horizontal=0;startSize=0;swimlaneHead=0;swimlaneBody=0;top=0;left=0;bottom=0;right=0;collapsible=0;dropTarget=0;fillColor=none;points=[[0,0.5],[1,0.5]];portConstraint=eastwest;strokeColor=inherit;fontSize=16;" parent="KR805-k4RVPn_iqTsWQG-27" vertex="1">
                    <mxGeometry y="150" width="178" height="30" as="geometry"/>
                </mxCell>
                <mxCell id="KR805-k4RVPn_iqTsWQG-41" value="5" style="shape=partialRectangle;html=1;whiteSpace=wrap;connectable=0;fillColor=none;top=0;left=0;bottom=0;right=0;overflow=hidden;strokeColor=inherit;fontSize=16;" parent="KR805-k4RVPn_iqTsWQG-40" vertex="1">
                    <mxGeometry width="40" height="30" as="geometry">
                        <mxRectangle width="40" height="30" as="alternateBounds"/>
                    </mxGeometry>
                </mxCell>
                <mxCell id="KR805-k4RVPn_iqTsWQG-42" value="Capitulos" style="shape=partialRectangle;html=1;whiteSpace=wrap;connectable=0;fillColor=none;top=0;left=0;bottom=0;right=0;align=left;spacingLeft=6;overflow=hidden;strokeColor=inherit;fontSize=16;" parent="KR805-k4RVPn_iqTsWQG-40" vertex="1">
                    <mxGeometry x="40" width="138" height="30" as="geometry">
                        <mxRectangle width="138" height="30" as="alternateBounds"/>
                    </mxGeometry>
                </mxCell>
                <mxCell id="KR805-k4RVPn_iqTsWQG-43" value="" style="shape=tableRow;horizontal=0;startSize=0;swimlaneHead=0;swimlaneBody=0;top=0;left=0;bottom=0;right=0;collapsible=0;dropTarget=0;fillColor=none;points=[[0,0.5],[1,0.5]];portConstraint=eastwest;strokeColor=inherit;fontSize=16;" parent="KR805-k4RVPn_iqTsWQG-27" vertex="1">
                    <mxGeometry y="180" width="178" height="26" as="geometry"/>
                </mxCell>
                <mxCell id="KR805-k4RVPn_iqTsWQG-44" value="6" style="shape=partialRectangle;html=1;whiteSpace=wrap;connectable=0;fillColor=none;top=0;left=0;bottom=0;right=0;overflow=hidden;strokeColor=inherit;fontSize=16;" parent="KR805-k4RVPn_iqTsWQG-43" vertex="1">
                    <mxGeometry width="40" height="26" as="geometry">
                        <mxRectangle width="40" height="26" as="alternateBounds"/>
                    </mxGeometry>
                </mxCell>
                <mxCell id="KR805-k4RVPn_iqTsWQG-45" value="Fecha de estreno" style="shape=partialRectangle;html=1;whiteSpace=wrap;connectable=0;fillColor=none;top=0;left=0;bottom=0;right=0;align=left;spacingLeft=6;overflow=hidden;strokeColor=inherit;fontSize=16;" parent="KR805-k4RVPn_iqTsWQG-43" vertex="1">
                    <mxGeometry x="40" width="138" height="26" as="geometry">
                        <mxRectangle width="138" height="26" as="alternateBounds"/>
                    </mxGeometry>
                </mxCell>
                <mxCell id="KR805-k4RVPn_iqTsWQG-46" value="" style="shape=tableRow;horizontal=0;startSize=0;swimlaneHead=0;swimlaneBody=0;top=0;left=0;bottom=0;right=0;collapsible=0;dropTarget=0;fillColor=none;points=[[0,0.5],[1,0.5]];portConstraint=eastwest;strokeColor=inherit;fontSize=16;" parent="KR805-k4RVPn_iqTsWQG-27" vertex="1">
                    <mxGeometry y="206" width="178" height="30" as="geometry"/>
                </mxCell>
                <mxCell id="KR805-k4RVPn_iqTsWQG-47" value="7" style="shape=partialRectangle;html=1;whiteSpace=wrap;connectable=0;fillColor=none;top=0;left=0;bottom=0;right=0;overflow=hidden;strokeColor=inherit;fontSize=16;" parent="KR805-k4RVPn_iqTsWQG-46" vertex="1">
                    <mxGeometry width="40" height="30" as="geometry">
                        <mxRectangle width="40" height="30" as="alternateBounds"/>
                    </mxGeometry>
                </mxCell>
                <mxCell id="KR805-k4RVPn_iqTsWQG-48" value="Calificación media" style="shape=partialRectangle;html=1;whiteSpace=wrap;connectable=0;fillColor=none;top=0;left=0;bottom=0;right=0;align=left;spacingLeft=6;overflow=hidden;strokeColor=inherit;fontSize=16;" parent="KR805-k4RVPn_iqTsWQG-46" vertex="1">
                    <mxGeometry x="40" width="138" height="30" as="geometry">
                        <mxRectangle width="138" height="30" as="alternateBounds"/>
                    </mxGeometry>
                </mxCell>
                <mxCell id="39" value="" style="shape=tableRow;horizontal=0;startSize=0;swimlaneHead=0;swimlaneBody=0;top=0;left=0;bottom=0;right=0;collapsible=0;dropTarget=0;fillColor=none;points=[[0,0.5],[1,0.5]];portConstraint=eastwest;strokeColor=inherit;fontSize=16;" vertex="1" parent="KR805-k4RVPn_iqTsWQG-27">
                    <mxGeometry y="236" width="178" height="30" as="geometry"/>
                </mxCell>
                <mxCell id="40" value="8" style="shape=partialRectangle;html=1;whiteSpace=wrap;connectable=0;fillColor=none;top=0;left=0;bottom=0;right=0;overflow=hidden;strokeColor=inherit;fontSize=16;" vertex="1" parent="39">
                    <mxGeometry width="40" height="30" as="geometry">
                        <mxRectangle width="40" height="30" as="alternateBounds"/>
                    </mxGeometry>
                </mxCell>
                <mxCell id="41" value="Estudio de anim." style="shape=partialRectangle;html=1;whiteSpace=wrap;connectable=0;fillColor=none;top=0;left=0;bottom=0;right=0;align=left;spacingLeft=6;overflow=hidden;strokeColor=inherit;fontSize=16;" vertex="1" parent="39">
                    <mxGeometry x="40" width="138" height="30" as="geometry">
                        <mxRectangle width="138" height="30" as="alternateBounds"/>
                    </mxGeometry>
                </mxCell>
                <mxCell id="51" value="" style="shape=tableRow;horizontal=0;startSize=0;swimlaneHead=0;swimlaneBody=0;top=0;left=0;bottom=0;right=0;collapsible=0;dropTarget=0;fillColor=none;points=[[0,0.5],[1,0.5]];portConstraint=eastwest;strokeColor=inherit;fontSize=16;" vertex="1" parent="KR805-k4RVPn_iqTsWQG-27">
                    <mxGeometry y="266" width="178" height="30" as="geometry"/>
                </mxCell>
                <mxCell id="52" value="9" style="shape=partialRectangle;html=1;whiteSpace=wrap;connectable=0;fillColor=none;top=0;left=0;bottom=0;right=0;overflow=hidden;strokeColor=inherit;fontSize=16;" vertex="1" parent="51">
                    <mxGeometry width="40" height="30" as="geometry">
                        <mxRectangle width="40" height="30" as="alternateBounds"/>
                    </mxGeometry>
                </mxCell>
                <mxCell id="53" value="Creador/a" style="shape=partialRectangle;html=1;whiteSpace=wrap;connectable=0;fillColor=none;top=0;left=0;bottom=0;right=0;align=left;spacingLeft=6;overflow=hidden;strokeColor=inherit;fontSize=16;" vertex="1" parent="51">
                    <mxGeometry x="40" width="138" height="30" as="geometry">
                        <mxRectangle width="138" height="30" as="alternateBounds"/>
                    </mxGeometry>
                </mxCell>
                <mxCell id="THMNmjtGREzgOkNECSH_-37" value="" style="shape=tableRow;horizontal=0;startSize=0;swimlaneHead=0;swimlaneBody=0;top=0;left=0;bottom=0;right=0;collapsible=0;dropTarget=0;fillColor=none;points=[[0,0.5],[1,0.5]];portConstraint=eastwest;strokeColor=inherit;fontSize=16;" parent="KR805-k4RVPn_iqTsWQG-27" vertex="1">
                    <mxGeometry y="296" width="178" height="30" as="geometry"/>
                </mxCell>
                <mxCell id="THMNmjtGREzgOkNECSH_-38" value="10" style="shape=partialRectangle;html=1;whiteSpace=wrap;connectable=0;fillColor=none;top=0;left=0;bottom=0;right=0;overflow=hidden;strokeColor=inherit;fontSize=16;" parent="THMNmjtGREzgOkNECSH_-37" vertex="1">
                    <mxGeometry width="40" height="30" as="geometry">
                        <mxRectangle width="40" height="30" as="alternateBounds"/>
                    </mxGeometry>
                </mxCell>
                <mxCell id="THMNmjtGREzgOkNECSH_-39" value="ID" style="shape=partialRectangle;html=1;whiteSpace=wrap;connectable=0;fillColor=none;top=0;left=0;bottom=0;right=0;align=left;spacingLeft=6;overflow=hidden;strokeColor=inherit;fontSize=16;" parent="THMNmjtGREzgOkNECSH_-37" vertex="1">
                    <mxGeometry x="40" width="138" height="30" as="geometry">
                        <mxRectangle width="138" height="30" as="alternateBounds"/>
                    </mxGeometry>
                </mxCell>
                <mxCell id="THMNmjtGREzgOkNECSH_-33" style="edgeStyle=orthogonalEdgeStyle;rounded=0;orthogonalLoop=1;jettySize=auto;html=1;exitX=0.5;exitY=1;exitDx=0;exitDy=0;entryX=0.5;entryY=0;entryDx=0;entryDy=0;" parent="1" source="THMNmjtGREzgOkNECSH_-6" target="THMNmjtGREzgOkNECSH_-23" edge="1">
                    <mxGeometry relative="1" as="geometry"/>
                </mxCell>
                <mxCell id="THMNmjtGREzgOkNECSH_-6" value="" style="shape=image;verticalLabelPosition=bottom;labelBackgroundColor=default;verticalAlign=top;aspect=fixed;imageAspect=0;image=https://pics.filmaffinity.com/Hilda_Serie_de_TV-900285575-large.jpg;" parent="1" vertex="1">
                    <mxGeometry x="-48" y="128" width="175.53" height="233" as="geometry"/>
                </mxCell>
                <mxCell id="THMNmjtGREzgOkNECSH_-7" value="Text" style="text;html=1;strokeColor=none;fillColor=none;align=center;verticalAlign=middle;whiteSpace=wrap;rounded=0;" parent="1" vertex="1">
                    <mxGeometry x="66" y="303" width="60" height="30" as="geometry"/>
                </mxCell>
                <mxCell id="THMNmjtGREzgOkNECSH_-8" value="CARICATURA" style="text;html=1;strokeColor=none;fillColor=none;align=center;verticalAlign=middle;whiteSpace=wrap;rounded=0;" parent="1" vertex="1">
                    <mxGeometry x="-260" y="89" width="94" height="30" as="geometry"/>
                </mxCell>
                <mxCell id="THMNmjtGREzgOkNECSH_-9" value="RESEÑA" style="text;html=1;strokeColor=none;fillColor=none;align=center;verticalAlign=middle;whiteSpace=wrap;rounded=0;" parent="1" vertex="1">
                    <mxGeometry x="9.770000000000003" y="89" width="60" height="30" as="geometry"/>
                </mxCell>
                <mxCell id="THMNmjtGREzgOkNECSH_-23" value="Datos Reseña" style="shape=table;startSize=30;container=1;collapsible=0;childLayout=tableLayout;fixedRows=1;rowLines=0;fontStyle=0;strokeColor=default;fontSize=16;" parent="1" vertex="1">
                    <mxGeometry x="-50.24" y="390" width="180" height="236.05555555555543" as="geometry"/>
                </mxCell>
                <mxCell id="THMNmjtGREzgOkNECSH_-24" value="" style="shape=tableRow;horizontal=0;startSize=0;swimlaneHead=0;swimlaneBody=0;top=0;left=0;bottom=0;right=0;collapsible=0;dropTarget=0;fillColor=none;points=[[0,0.5],[1,0.5]];portConstraint=eastwest;strokeColor=inherit;fontSize=16;" parent="THMNmjtGREzgOkNECSH_-23" vertex="1">
                    <mxGeometry y="30" width="180" height="30" as="geometry"/>
                </mxCell>
                <mxCell id="THMNmjtGREzgOkNECSH_-25" value="1" style="shape=partialRectangle;html=1;whiteSpace=wrap;connectable=0;fillColor=none;top=0;left=0;bottom=0;right=0;overflow=hidden;pointerEvents=1;strokeColor=inherit;fontSize=16;" parent="THMNmjtGREzgOkNECSH_-24" vertex="1">
                    <mxGeometry width="40" height="30" as="geometry">
                        <mxRectangle width="40" height="30" as="alternateBounds"/>
                    </mxGeometry>
                </mxCell>
                <mxCell id="THMNmjtGREzgOkNECSH_-26" value="Titulo" style="shape=partialRectangle;html=1;whiteSpace=wrap;connectable=0;fillColor=none;top=0;left=0;bottom=0;right=0;align=left;spacingLeft=6;overflow=hidden;strokeColor=inherit;fontSize=16;" parent="THMNmjtGREzgOkNECSH_-24" vertex="1">
                    <mxGeometry x="40" width="140" height="30" as="geometry">
                        <mxRectangle width="140" height="30" as="alternateBounds"/>
                    </mxGeometry>
                </mxCell>
                <mxCell id="THMNmjtGREzgOkNECSH_-27" value="" style="shape=tableRow;horizontal=0;startSize=0;swimlaneHead=0;swimlaneBody=0;top=0;left=0;bottom=0;right=0;collapsible=0;dropTarget=0;fillColor=none;points=[[0,0.5],[1,0.5]];portConstraint=eastwest;strokeColor=inherit;fontSize=16;" parent="THMNmjtGREzgOkNECSH_-23" vertex="1">
                    <mxGeometry y="60" width="180" height="30" as="geometry"/>
                </mxCell>
                <mxCell id="THMNmjtGREzgOkNECSH_-28" value="2" style="shape=partialRectangle;html=1;whiteSpace=wrap;connectable=0;fillColor=none;top=0;left=0;bottom=0;right=0;overflow=hidden;strokeColor=inherit;fontSize=16;" parent="THMNmjtGREzgOkNECSH_-27" vertex="1">
                    <mxGeometry width="40" height="30" as="geometry">
                        <mxRectangle width="40" height="30" as="alternateBounds"/>
                    </mxGeometry>
                </mxCell>
                <mxCell id="THMNmjtGREzgOkNECSH_-29" value="Usuario" style="shape=partialRectangle;html=1;whiteSpace=wrap;connectable=0;fillColor=none;top=0;left=0;bottom=0;right=0;align=left;spacingLeft=6;overflow=hidden;strokeColor=inherit;fontSize=16;" parent="THMNmjtGREzgOkNECSH_-27" vertex="1">
                    <mxGeometry x="40" width="140" height="30" as="geometry">
                        <mxRectangle width="140" height="30" as="alternateBounds"/>
                    </mxGeometry>
                </mxCell>
                <mxCell id="THMNmjtGREzgOkNECSH_-30" value="" style="shape=tableRow;horizontal=0;startSize=0;swimlaneHead=0;swimlaneBody=0;top=0;left=0;bottom=0;right=0;collapsible=0;dropTarget=0;fillColor=none;points=[[0,0.5],[1,0.5]];portConstraint=eastwest;strokeColor=inherit;fontSize=16;" parent="THMNmjtGREzgOkNECSH_-23" vertex="1">
                    <mxGeometry y="90" width="180" height="30" as="geometry"/>
                </mxCell>
                <mxCell id="THMNmjtGREzgOkNECSH_-31" value="3" style="shape=partialRectangle;html=1;whiteSpace=wrap;connectable=0;fillColor=none;top=0;left=0;bottom=0;right=0;overflow=hidden;strokeColor=inherit;fontSize=16;" parent="THMNmjtGREzgOkNECSH_-30" vertex="1">
                    <mxGeometry width="40" height="30" as="geometry">
                        <mxRectangle width="40" height="30" as="alternateBounds"/>
                    </mxGeometry>
                </mxCell>
                <mxCell id="THMNmjtGREzgOkNECSH_-32" value="Fecha" style="shape=partialRectangle;html=1;whiteSpace=wrap;connectable=0;fillColor=none;top=0;left=0;bottom=0;right=0;align=left;spacingLeft=6;overflow=hidden;strokeColor=inherit;fontSize=16;" parent="THMNmjtGREzgOkNECSH_-30" vertex="1">
                    <mxGeometry x="40" width="140" height="30" as="geometry">
                        <mxRectangle width="140" height="30" as="alternateBounds"/>
                    </mxGeometry>
                </mxCell>
                <mxCell id="THMNmjtGREzgOkNECSH_-34" value="" style="shape=tableRow;horizontal=0;startSize=0;swimlaneHead=0;swimlaneBody=0;top=0;left=0;bottom=0;right=0;collapsible=0;dropTarget=0;fillColor=none;points=[[0,0.5],[1,0.5]];portConstraint=eastwest;strokeColor=inherit;fontSize=16;" parent="THMNmjtGREzgOkNECSH_-23" vertex="1">
                    <mxGeometry y="120" width="180" height="26" as="geometry"/>
                </mxCell>
                <mxCell id="THMNmjtGREzgOkNECSH_-35" value="3" style="shape=partialRectangle;html=1;whiteSpace=wrap;connectable=0;fillColor=none;top=0;left=0;bottom=0;right=0;overflow=hidden;strokeColor=inherit;fontSize=16;" parent="THMNmjtGREzgOkNECSH_-34" vertex="1">
                    <mxGeometry width="40" height="26" as="geometry">
                        <mxRectangle width="40" height="26" as="alternateBounds"/>
                    </mxGeometry>
                </mxCell>
                <mxCell id="THMNmjtGREzgOkNECSH_-36" value="Reseña" style="shape=partialRectangle;html=1;whiteSpace=wrap;connectable=0;fillColor=none;top=0;left=0;bottom=0;right=0;align=left;spacingLeft=6;overflow=hidden;strokeColor=inherit;fontSize=16;" parent="THMNmjtGREzgOkNECSH_-34" vertex="1">
                    <mxGeometry x="40" width="140" height="26" as="geometry">
                        <mxRectangle width="140" height="26" as="alternateBounds"/>
                    </mxGeometry>
                </mxCell>
                <mxCell id="THMNmjtGREzgOkNECSH_-40" value="" style="shape=tableRow;horizontal=0;startSize=0;swimlaneHead=0;swimlaneBody=0;top=0;left=0;bottom=0;right=0;collapsible=0;dropTarget=0;fillColor=none;points=[[0,0.5],[1,0.5]];portConstraint=eastwest;strokeColor=inherit;fontSize=16;" parent="THMNmjtGREzgOkNECSH_-23" vertex="1">
                    <mxGeometry y="146" width="180" height="30" as="geometry"/>
                </mxCell>
                <mxCell id="THMNmjtGREzgOkNECSH_-41" value="4" style="shape=partialRectangle;html=1;whiteSpace=wrap;connectable=0;fillColor=none;top=0;left=0;bottom=0;right=0;overflow=hidden;strokeColor=inherit;fontSize=16;" parent="THMNmjtGREzgOkNECSH_-40" vertex="1">
                    <mxGeometry width="40" height="30" as="geometry">
                        <mxRectangle width="40" height="30" as="alternateBounds"/>
                    </mxGeometry>
                </mxCell>
                <mxCell id="THMNmjtGREzgOkNECSH_-42" value="Calificación&amp;nbsp;" style="shape=partialRectangle;html=1;whiteSpace=wrap;connectable=0;fillColor=none;top=0;left=0;bottom=0;right=0;align=left;spacingLeft=6;overflow=hidden;strokeColor=inherit;fontSize=16;" parent="THMNmjtGREzgOkNECSH_-40" vertex="1">
                    <mxGeometry x="40" width="140" height="30" as="geometry">
                        <mxRectangle width="140" height="30" as="alternateBounds"/>
                    </mxGeometry>
                </mxCell>
                <mxCell id="THMNmjtGREzgOkNECSH_-72" value="" style="shape=tableRow;horizontal=0;startSize=0;swimlaneHead=0;swimlaneBody=0;top=0;left=0;bottom=0;right=0;collapsible=0;dropTarget=0;fillColor=none;points=[[0,0.5],[1,0.5]];portConstraint=eastwest;strokeColor=inherit;fontSize=16;" parent="THMNmjtGREzgOkNECSH_-23" vertex="1">
                    <mxGeometry y="176" width="180" height="30" as="geometry"/>
                </mxCell>
                <mxCell id="THMNmjtGREzgOkNECSH_-73" value="5" style="shape=partialRectangle;html=1;whiteSpace=wrap;connectable=0;fillColor=none;top=0;left=0;bottom=0;right=0;overflow=hidden;strokeColor=inherit;fontSize=16;" parent="THMNmjtGREzgOkNECSH_-72" vertex="1">
                    <mxGeometry width="40" height="30" as="geometry">
                        <mxRectangle width="40" height="30" as="alternateBounds"/>
                    </mxGeometry>
                </mxCell>
                <mxCell id="THMNmjtGREzgOkNECSH_-74" value="Spoiler" style="shape=partialRectangle;html=1;whiteSpace=wrap;connectable=0;fillColor=none;top=0;left=0;bottom=0;right=0;align=left;spacingLeft=6;overflow=hidden;strokeColor=inherit;fontSize=16;" parent="THMNmjtGREzgOkNECSH_-72" vertex="1">
                    <mxGeometry x="40" width="140" height="30" as="geometry">
                        <mxRectangle width="140" height="30" as="alternateBounds"/>
                    </mxGeometry>
                </mxCell>
                <mxCell id="11" value="" style="shape=tableRow;horizontal=0;startSize=0;swimlaneHead=0;swimlaneBody=0;top=0;left=0;bottom=0;right=0;collapsible=0;dropTarget=0;fillColor=none;points=[[0,0.5],[1,0.5]];portConstraint=eastwest;strokeColor=inherit;fontSize=16;" vertex="1" parent="THMNmjtGREzgOkNECSH_-23">
                    <mxGeometry y="206" width="180" height="30" as="geometry"/>
                </mxCell>
                <mxCell id="12" value="6" style="shape=partialRectangle;html=1;whiteSpace=wrap;connectable=0;fillColor=none;top=0;left=0;bottom=0;right=0;overflow=hidden;strokeColor=inherit;fontSize=16;" vertex="1" parent="11">
                    <mxGeometry width="40" height="30" as="geometry">
                        <mxRectangle width="40" height="30" as="alternateBounds"/>
                    </mxGeometry>
                </mxCell>
                <mxCell id="13" value="ID" style="shape=partialRectangle;html=1;whiteSpace=wrap;connectable=0;fillColor=none;top=0;left=0;bottom=0;right=0;align=left;spacingLeft=6;overflow=hidden;strokeColor=inherit;fontSize=16;" vertex="1" parent="11">
                    <mxGeometry x="40" width="140" height="30" as="geometry">
                        <mxRectangle width="140" height="30" as="alternateBounds"/>
                    </mxGeometry>
                </mxCell>
                <mxCell id="THMNmjtGREzgOkNECSH_-55" style="edgeStyle=orthogonalEdgeStyle;rounded=0;orthogonalLoop=1;jettySize=auto;html=1;exitX=0.5;exitY=1;exitDx=0;exitDy=0;entryX=0.5;entryY=0;entryDx=0;entryDy=0;" parent="1" source="THMNmjtGREzgOkNECSH_-43" target="THMNmjtGREzgOkNECSH_-45" edge="1">
                    <mxGeometry relative="1" as="geometry"/>
                </mxCell>
                <mxCell id="THMNmjtGREzgOkNECSH_-43" value="" style="shape=image;verticalLabelPosition=bottom;labelBackgroundColor=default;verticalAlign=top;aspect=fixed;imageAspect=0;image=https://cdn-icons-png.flaticon.com/512/1993/1993194.png;" parent="1" vertex="1">
                    <mxGeometry x="204" y="128" width="159" height="159" as="geometry"/>
                </mxCell>
                <mxCell id="THMNmjtGREzgOkNECSH_-44" value="USUARIO" style="text;html=1;strokeColor=none;fillColor=none;align=center;verticalAlign=middle;whiteSpace=wrap;rounded=0;" parent="1" vertex="1">
                    <mxGeometry x="253.5" y="89" width="60" height="30" as="geometry"/>
                </mxCell>
                <mxCell id="THMNmjtGREzgOkNECSH_-45" value="Datos Usuario" style="shape=table;startSize=30;container=1;collapsible=0;childLayout=tableLayout;fixedRows=1;rowLines=0;fontStyle=0;strokeColor=default;fontSize=16;" parent="1" vertex="1">
                    <mxGeometry x="193.5" y="312" width="180" height="150" as="geometry"/>
                </mxCell>
                <mxCell id="THMNmjtGREzgOkNECSH_-46" value="" style="shape=tableRow;horizontal=0;startSize=0;swimlaneHead=0;swimlaneBody=0;top=0;left=0;bottom=0;right=0;collapsible=0;dropTarget=0;fillColor=none;points=[[0,0.5],[1,0.5]];portConstraint=eastwest;strokeColor=inherit;fontSize=16;" parent="THMNmjtGREzgOkNECSH_-45" vertex="1">
                    <mxGeometry y="30" width="180" height="30" as="geometry"/>
                </mxCell>
                <mxCell id="THMNmjtGREzgOkNECSH_-47" value="1" style="shape=partialRectangle;html=1;whiteSpace=wrap;connectable=0;fillColor=none;top=0;left=0;bottom=0;right=0;overflow=hidden;pointerEvents=1;strokeColor=inherit;fontSize=16;" parent="THMNmjtGREzgOkNECSH_-46" vertex="1">
                    <mxGeometry width="40" height="30" as="geometry">
                        <mxRectangle width="40" height="30" as="alternateBounds"/>
                    </mxGeometry>
                </mxCell>
                <mxCell id="THMNmjtGREzgOkNECSH_-48" value="Nombre" style="shape=partialRectangle;html=1;whiteSpace=wrap;connectable=0;fillColor=none;top=0;left=0;bottom=0;right=0;align=left;spacingLeft=6;overflow=hidden;strokeColor=inherit;fontSize=16;" parent="THMNmjtGREzgOkNECSH_-46" vertex="1">
                    <mxGeometry x="40" width="140" height="30" as="geometry">
                        <mxRectangle width="140" height="30" as="alternateBounds"/>
                    </mxGeometry>
                </mxCell>
                <mxCell id="THMNmjtGREzgOkNECSH_-49" value="" style="shape=tableRow;horizontal=0;startSize=0;swimlaneHead=0;swimlaneBody=0;top=0;left=0;bottom=0;right=0;collapsible=0;dropTarget=0;fillColor=none;points=[[0,0.5],[1,0.5]];portConstraint=eastwest;strokeColor=inherit;fontSize=16;" parent="THMNmjtGREzgOkNECSH_-45" vertex="1">
                    <mxGeometry y="60" width="180" height="30" as="geometry"/>
                </mxCell>
                <mxCell id="THMNmjtGREzgOkNECSH_-50" value="2" style="shape=partialRectangle;html=1;whiteSpace=wrap;connectable=0;fillColor=none;top=0;left=0;bottom=0;right=0;overflow=hidden;strokeColor=inherit;fontSize=16;" parent="THMNmjtGREzgOkNECSH_-49" vertex="1">
                    <mxGeometry width="40" height="30" as="geometry">
                        <mxRectangle width="40" height="30" as="alternateBounds"/>
                    </mxGeometry>
                </mxCell>
                <mxCell id="THMNmjtGREzgOkNECSH_-51" value="Contraseña" style="shape=partialRectangle;html=1;whiteSpace=wrap;connectable=0;fillColor=none;top=0;left=0;bottom=0;right=0;align=left;spacingLeft=6;overflow=hidden;strokeColor=inherit;fontSize=16;" parent="THMNmjtGREzgOkNECSH_-49" vertex="1">
                    <mxGeometry x="40" width="140" height="30" as="geometry">
                        <mxRectangle width="140" height="30" as="alternateBounds"/>
                    </mxGeometry>
                </mxCell>
                <mxCell id="THMNmjtGREzgOkNECSH_-52" value="" style="shape=tableRow;horizontal=0;startSize=0;swimlaneHead=0;swimlaneBody=0;top=0;left=0;bottom=0;right=0;collapsible=0;dropTarget=0;fillColor=none;points=[[0,0.5],[1,0.5]];portConstraint=eastwest;strokeColor=inherit;fontSize=16;" parent="THMNmjtGREzgOkNECSH_-45" vertex="1">
                    <mxGeometry y="90" width="180" height="30" as="geometry"/>
                </mxCell>
                <mxCell id="THMNmjtGREzgOkNECSH_-53" value="3" style="shape=partialRectangle;html=1;whiteSpace=wrap;connectable=0;fillColor=none;top=0;left=0;bottom=0;right=0;overflow=hidden;strokeColor=inherit;fontSize=16;" parent="THMNmjtGREzgOkNECSH_-52" vertex="1">
                    <mxGeometry width="40" height="30" as="geometry">
                        <mxRectangle width="40" height="30" as="alternateBounds"/>
                    </mxGeometry>
                </mxCell>
                <mxCell id="THMNmjtGREzgOkNECSH_-54" value="Email" style="shape=partialRectangle;html=1;whiteSpace=wrap;connectable=0;fillColor=none;top=0;left=0;bottom=0;right=0;align=left;spacingLeft=6;overflow=hidden;strokeColor=inherit;fontSize=16;" parent="THMNmjtGREzgOkNECSH_-52" vertex="1">
                    <mxGeometry x="40" width="140" height="30" as="geometry">
                        <mxRectangle width="140" height="30" as="alternateBounds"/>
                    </mxGeometry>
                </mxCell>
                <mxCell id="8" value="" style="shape=tableRow;horizontal=0;startSize=0;swimlaneHead=0;swimlaneBody=0;top=0;left=0;bottom=0;right=0;collapsible=0;dropTarget=0;fillColor=none;points=[[0,0.5],[1,0.5]];portConstraint=eastwest;strokeColor=inherit;fontSize=16;" vertex="1" parent="THMNmjtGREzgOkNECSH_-45">
                    <mxGeometry y="120" width="180" height="30" as="geometry"/>
                </mxCell>
                <mxCell id="9" value="3" style="shape=partialRectangle;html=1;whiteSpace=wrap;connectable=0;fillColor=none;top=0;left=0;bottom=0;right=0;overflow=hidden;strokeColor=inherit;fontSize=16;" vertex="1" parent="8">
                    <mxGeometry width="40" height="30" as="geometry">
                        <mxRectangle width="40" height="30" as="alternateBounds"/>
                    </mxGeometry>
                </mxCell>
                <mxCell id="10" value="ID" style="shape=partialRectangle;html=1;whiteSpace=wrap;connectable=0;fillColor=none;top=0;left=0;bottom=0;right=0;align=left;spacingLeft=6;overflow=hidden;strokeColor=inherit;fontSize=16;" vertex="1" parent="8">
                    <mxGeometry x="40" width="140" height="30" as="geometry">
                        <mxRectangle width="140" height="30" as="alternateBounds"/>
                    </mxGeometry>
                </mxCell>
                <mxCell id="83" value="" style="shape=singleArrow;whiteSpace=wrap;html=1;rounded=1;shadow=0;glass=0;sketch=1;fontSize=42;fillColor=#280061;" vertex="1" parent="1">
                    <mxGeometry x="421" y="283" width="207" height="125" as="geometry"/>
                </mxCell>
                <mxCell id="84" value="Diagrama de la API" style="rounded=1;whiteSpace=wrap;html=1;strokeWidth=2;fillWeight=4;hachureGap=8;hachureAngle=45;sketch=1;shadow=0;glass=0;fontSize=42;fillColor=#372C40;strokeColor=#432D57;fontColor=#ffffff;" vertex="1" parent="1">
                    <mxGeometry x="761" y="-104" width="410" height="71" as="geometry"/>
                </mxCell>
                <mxCell id="86" style="edgeStyle=none;html=1;exitX=0;exitY=1;exitDx=0;exitDy=0;fontSize=32;fontColor=#FFFFFF;entryX=0;entryY=0.5;entryDx=0;entryDy=0;" edge="1" parent="1" source="85" target="87">
                    <mxGeometry relative="1" as="geometry">
                        <mxPoint x="761" y="109.33333333333326" as="targetPoint"/>
                        <Array as="points">
                            <mxPoint x="761" y="140"/>
                        </Array>
                    </mxGeometry>
                </mxCell>
                <mxCell id="90" style="edgeStyle=none;html=1;exitX=0;exitY=1;exitDx=0;exitDy=0;fontSize=32;fontColor=#FFFFFF;" edge="1" parent="1" source="85">
                    <mxGeometry relative="1" as="geometry">
                        <mxPoint x="806" y="248" as="targetPoint"/>
                        <Array as="points">
                            <mxPoint x="761" y="248"/>
                        </Array>
                    </mxGeometry>
                </mxCell>
                <mxCell id="94" style="edgeStyle=none;html=1;exitX=0;exitY=1;exitDx=0;exitDy=0;fontSize=32;fontColor=#FFFFFF;entryX=0;entryY=0.5;entryDx=0;entryDy=0;" edge="1" parent="1" source="85" target="95">
                    <mxGeometry relative="1" as="geometry">
                        <mxPoint x="809" y="336" as="targetPoint"/>
                        <Array as="points">
                            <mxPoint x="761" y="357"/>
                        </Array>
                    </mxGeometry>
                </mxCell>
                <mxCell id="85" value="&lt;font style=&quot;font-size: 32px;&quot; color=&quot;#ffffff&quot;&gt;Catalogo&lt;/font&gt;" style="rounded=1;whiteSpace=wrap;html=1;shadow=0;glass=0;sketch=1;fontSize=42;fontColor=#000000;fillColor=#372C40;" vertex="1" parent="1">
                    <mxGeometry x="761" y="6" width="211" height="57" as="geometry"/>
                </mxCell>
                <mxCell id="89" value="" style="edgeStyle=none;html=1;fontSize=32;fontColor=#FFFFFF;" edge="1" parent="1" source="87" target="88">
                    <mxGeometry relative="1" as="geometry"/>
                </mxCell>
                <mxCell id="87" value="GET" style="rounded=0;whiteSpace=wrap;html=1;shadow=0;glass=0;sketch=1;fontSize=32;fontColor=#FFFFFF;fillColor=#372C40;" vertex="1" parent="1">
                    <mxGeometry x="805" y="110" width="183" height="60" as="geometry"/>
                </mxCell>
                <mxCell id="88" value="Lista caricaturas" style="whiteSpace=wrap;html=1;fontSize=32;fillColor=#372C40;fontColor=#FFFFFF;rounded=0;shadow=0;glass=0;sketch=1;" vertex="1" parent="1">
                    <mxGeometry x="1099" y="110" width="247.5" height="64" as="geometry"/>
                </mxCell>
                <mxCell id="93" value="" style="edgeStyle=none;html=1;fontSize=32;fontColor=#FFFFFF;" edge="1" parent="1" source="91" target="92">
                    <mxGeometry relative="1" as="geometry"/>
                </mxCell>
                <mxCell id="91" value="GET" style="rounded=0;whiteSpace=wrap;html=1;shadow=0;glass=0;sketch=1;fontSize=32;fontColor=#FFFFFF;fillColor=#372C40;" vertex="1" parent="1">
                    <mxGeometry x="808" y="217" width="183" height="60" as="geometry"/>
                </mxCell>
                <mxCell id="92" value="Caricatura por titulo" style="whiteSpace=wrap;html=1;fontSize=32;fillColor=#372C40;fontColor=#FFFFFF;rounded=0;shadow=0;glass=0;sketch=1;" vertex="1" parent="1">
                    <mxGeometry x="1099" y="209" width="272" height="78" as="geometry"/>
                </mxCell>
                <mxCell id="97" value="" style="edgeStyle=none;html=1;fontSize=32;fontColor=#FFFFFF;" edge="1" parent="1" source="95" target="96">
                    <mxGeometry relative="1" as="geometry"/>
                </mxCell>
                <mxCell id="95" value="GET" style="rounded=0;whiteSpace=wrap;html=1;shadow=0;glass=0;sketch=1;fontSize=32;fontColor=#FFFFFF;fillColor=#372C40;" vertex="1" parent="1">
                    <mxGeometry x="808" y="327" width="183" height="60" as="geometry"/>
                </mxCell>
                <mxCell id="96" value="Caricaturas por genero" style="whiteSpace=wrap;html=1;fontSize=32;fillColor=#372C40;fontColor=#FFFFFF;rounded=0;shadow=0;glass=0;sketch=1;" vertex="1" parent="1">
                    <mxGeometry x="1099" y="315" width="298" height="84" as="geometry"/>
                </mxCell>
            </root>
        </mxGraphModel>
    </diagram>
</mxfile>